<svg width="14" height="10" viewBox="0 0 14 10" fill="none" xmlns="http://www.w3.org/2000/svg">
<path d="M4.78125 9.5C4.94792 9.5 5.10417 9.47417 5.25 9.4225C5.39583 9.37 5.53125 9.28125 5.65625 9.15625L12.75 2.0625C12.9792 1.83333 13.0938 1.55208 13.0938 1.21875C13.0938 0.885416 12.9688 0.59375 12.7188 0.34375C12.4896 0.114583 12.1979 0 11.8438 0C11.4896 0 11.1979 0.114583 10.9688 0.34375L4.78125 6.53125L2.0625 3.8125C1.83333 3.58333 1.55208 3.46875 1.21875 3.46875C0.885417 3.46875 0.59375 3.59375 0.34375 3.84375C0.114583 4.07292 0 4.36458 0 4.71875C0 5.07292 0.114583 5.36458 0.34375 5.59375L3.90625 9.15625C4.03125 9.28125 4.16667 9.37 4.3125 9.4225C4.45833 9.47417 4.61458 9.5 4.78125 9.5Z" fill="white"/>
</svg>
