    <svg width="0" height="0" style="display: none">
    <defs>
        <linearGradient id="gradient1" x1="0%" y1="0%" x2="100%" y2="100%">
            <stop offset="0%" style="stop-color:rgb(255,255,0);stop-opacity:1" />
            <stop offset="100%" style="stop-color:rgb(255,0,0);stop-opacity:1" />
        </linearGradient>
    </defs>
    <symbol xmlns="http://www.w3.org/2000/svg" viewBox="0 0 19 12" id="arrowDown">
        <path d="M3.51844 1.32227L9.5001 7.30394L15.4818 1.32227C15.6245 1.17954 15.7939 1.06632 15.9804 0.989074C16.1669 0.911829 16.3668 0.87207 16.5686 0.87207C16.7705 0.87207 16.9704 0.911829 17.1569 0.989074C17.3433 1.06632 17.5128 1.17954 17.6555 1.32227C17.7983 1.465 17.9115 1.63445 17.9887 1.82093C18.066 2.00742 18.1057 2.20729 18.1057 2.40914C18.1057 2.611 18.066 2.81087 17.9887 2.99736C17.9115 3.18384 17.7983 3.35329 17.6555 3.49602L10.5793 10.5723C10.4366 10.7152 10.2672 10.8286 10.0807 10.9059C9.89423 10.9833 9.6943 11.0231 9.49239 11.0231C9.29048 11.0231 9.09056 10.9833 8.90406 10.9059C8.71756 10.8286 8.54814 10.7152 8.40552 10.5723L1.32927 3.49602C1.18635 3.35339 1.07296 3.18398 0.995602 2.99748C0.918239 2.81098 0.878418 2.61105 0.878418 2.40914C0.878418 2.20723 0.918239 2.00731 0.995602 1.82081C1.07296 1.63431 1.18635 1.46489 1.32927 1.32227C1.93052 0.736436 2.91719 0.721019 3.51844 1.32227Z"></path>
    </symbol>
    <symbol fill="none" xmlns="http://www.w3.org/2000/svg" viewBox="0 0 622 538" id="test">
        <path d="M621.345 537.931V192.8C621.345 182.234 620.076 174.414 613.759 168.083L453.248 7.58621C448.435 2.77241 441.759 0 434.931 0H34.6277C18.2691 0 0.655273 12.6345 0.655273 40.3586V537.931H621.345ZM317.897 455.172C317.897 462.786 311.731 468.966 304.104 468.966C296.476 468.966 290.31 462.786 290.31 455.172V413.793C290.31 406.179 296.476 400 304.104 400C311.731 400 317.897 406.179 317.897 413.793V455.172ZM428.241 46.7724C428.241 40.4552 435.869 37.2966 440.338 41.7655L579.579 181.007C584.048 185.476 580.89 193.103 574.573 193.103H428.241V46.7724ZM414.448 331.034V275.862C414.448 268.262 408.269 262.069 400.655 262.069C393.028 262.069 386.862 255.89 386.862 248.276C386.862 240.662 393.028 234.483 400.655 234.483C423.469 234.483 442.035 253.048 442.035 275.862V331.034C442.035 346.248 454.407 358.621 469.621 358.621C477.248 358.621 483.414 364.8 483.414 372.414C483.414 380.028 477.248 386.207 469.621 386.207C454.407 386.207 442.035 398.579 442.035 413.793V468.966C442.035 491.779 423.469 510.345 400.655 510.345C393.028 510.345 386.862 504.166 386.862 496.552C386.862 488.938 393.028 482.759 400.655 482.759C408.269 482.759 414.448 476.566 414.448 468.966V413.793C414.448 397.241 421.924 382.538 433.51 372.414C421.924 362.29 414.448 347.586 414.448 331.034ZM304.104 303.448C315.524 303.448 324.793 312.717 324.793 324.138C324.793 335.559 315.524 344.828 304.104 344.828C292.683 344.828 283.414 335.559 283.414 324.138C283.414 312.717 292.683 303.448 304.104 303.448ZM138.586 358.621C153.8 358.621 166.173 346.248 166.173 331.034V275.862C166.173 253.048 184.738 234.483 207.552 234.483C215.179 234.483 221.345 240.662 221.345 248.276C221.345 255.89 215.179 262.069 207.552 262.069C199.938 262.069 193.759 268.262 193.759 275.862V331.034C193.759 347.586 186.283 362.29 174.697 372.414C186.283 382.538 193.759 397.241 193.759 413.793V468.966C193.759 476.566 199.938 482.759 207.552 482.759C215.179 482.759 221.345 488.938 221.345 496.552C221.345 504.166 215.179 510.345 207.552 510.345C184.738 510.345 166.173 491.779 166.173 468.966V413.793C166.173 398.579 153.8 386.207 138.586 386.207C130.959 386.207 124.793 380.028 124.793 372.414C124.793 364.8 130.959 358.621 138.586 358.621Z" fill="url(#gradient1)"></path>


    </symbol>
</svg>